#!OML:ASF F:\VICON\USERDATA\INSTALL\rory3\rory3.ASF
:FULLY-SPECIFIED
:DEGREES
243
root 0.499023 22.2418 -17.1517 3.93068 -12.89 3.00686
lowerback 12.3836 0.485935 -0.379564
upperback 1.075 0.689847 1.70345
thorax -5.84427 0.3651 1.88727
lowerneck -12.5803 -1.40656 -10.3731
upperneck 13.857 -0.860962 5.90487
head 6.35019 -0.485044 3.51983
rclavicle 6.16232e-015 -7.15625e-015
rhumerus -50.2657 1.44314 -82.8093
rradius 44.9364
rwrist -0.651992
rhand -18.6218 6.91148
rfingers 7.12502
rthumb 7.67016 -22.9294
lclavicle 6.16232e-015 -7.15625e-015
lhumerus -44.9586 11.8143 82.2233
lradius 41.0814
lwrist 9.70545
lhand -24.6357 16.6524
lfingers 7.12502
lthumb 1.86342 46.624
rfemur -20.5426 -1.57435 17.9068
rtibia 27.8475
rfoot 20.8539 -2.40416
rtoes 9.83304
lfemur -22.1186 5.0807 -18.1788
ltibia 33.4469
lfoot 15.6778 -3.74584
ltoes 0.494681
244
root 0.492192 21.9122 -17.1325 3.73991 -12.7837 2.86115
lowerback 12.2024 0.396771 -0.0368572
upperback 1.00574 0.626195 1.83123
thorax -5.81193 0.327207 1.83923
lowerneck -12.6752 -1.39066 -10.1951
upperneck 13.9461 -0.841816 5.75565
head 6.39211 -0.478897 3.44508
rclavicle -2.18663e-015 1.59028e-015
rhumerus -50.7613 1.73286 -82.6142
rradius 45.7686
rwrist -0.687719
rhand -18.3079 6.74463
rfingers 7.12502
rthumb 7.97316 -23.085
lclavicle -2.18663e-015 1.59028e-015
lhumerus -45.3378 11.5478 81.8604
lradius 41.8607
lwrist 9.73642
lhand -24.7246 19.4505
lfingers 7.12502
lthumb 1.7775 49.4229
rfemur -19.8856 -0.824789 17.7498
rtibia 27.3954
rfoot 21.3439 -2.53531
rtoes 11.5093
lfemur -21.6607 5.123 -18.0732
ltibia 33.3339
lfoot 16.1176 -3.95711
ltoes -0.713975
245
root 0.484624 21.5622 -17.1148 3.51312 -12.6929 2.96808
lowerback 12.136 0.318637 -0.0131353
upperback 0.882742 0.535339 1.95688
thorax -5.90293 0.284782 1.97414
lowerneck -12.71 -1.33946 -10.1959
upperneck 13.9989 -0.761156 5.70398
head 6.40813 -0.444748 3.43651
rclavicle -1.49089e-014 2.70347e-014
rhumerus -51.2677 2.21481 -82.3905
rradius 46.5236
rwrist -0.925571
rhand -18.4254 7.0954
rfingers 7.12502
rthumb 7.85978 -22.7385
lclavicle -1.49089e-014 2.70347e-014
lhumerus -45.763 11.4063 81.4777
lradius 42.4762
lwrist 9.36136
lhand -25.3329 23.6966
lfingers 7.12502
lthumb 1.19 53.6731
rfemur -19.2917 -0.0110119 17.3293
rtibia 27.002
rfoot 21.9773 -2.84495
rtoes 13.3681
lfemur -21.211 5.28529 -18.254
ltibia 33.1898
lfoot 16.8299 -4.3432
ltoes -2.09855
246
root 0.479734 21.1962 -17.0875 3.15624 -12.7269 3.33814
lowerback 11.901 0.320426 -0.0928959
upperback 0.926932 0.519525 1.8839
thorax -5.72436 0.277195 1.94456
lowerneck -12.8244 -1.3336 -10.0742
upperneck 13.9254 -0.757734 5.66854
head 6.4033 -0.436741 3.40461
rclavicle -4.77083e-015 -2.14687e-014
rhumerus -51.4375 2.19774 -82.1422
rradius 47.1882
rwrist -1.10898
rhand -18.1486 7.52714
rfingers 7.12502
rthumb 8.12696 -22.2966
lclavicle -4.77083e-015 -2.14687e-014
lhumerus -45.8298 11.0607 81.0514
lradius 42.9676
lwrist 9.26774
lhand -25.7907 25.9731
lfingers 7.12502
lthumb 0.747849 55.9515
rfemur -18.6241 0.8309 16.6101
rtibia 26.6959
rfoot 22.6553 -2.94121
rtoes 13.7042
lfemur -20.6242 5.4675 -18.7408
ltibia 33.0713
lfoot 17.6895 -4.84031
ltoes -2.26049
247
root 0.477071 20.8248 -17.0561 2.75441 -12.8386 3.57609
lowerback 11.6054 0.324471 -0.064919
upperback 0.974146 0.524445 1.87608
thorax -5.50931 0.277666 1.91921
lowerneck -12.7575 -1.28545 -9.92774
upperneck 13.8998 -0.710189 5.56103
head 6.37887 -0.415184 3.3492
rclavicle 3.39922e-014 -7.95139e-015
rhumerus -51.63 2.20643 -81.8288
rradius 47.7181
rwrist -1.24006
rhand -17.9795 7.78247
rfingers 7.12502
rthumb 8.2901 -22.0349
lclavicle 3.39922e-014 -7.95139e-015
lhumerus -46.0054 10.9395 80.5804
lradius 43.5911
lwrist 9.33304
lhand -25.6889 26.0332
lfingers 7.12502
lthumb 0.846211 56.0113
rfemur -17.9227 1.7654 16.0518
rtibia 26.5061
rfoot 23.5283 -3.02362
rtoes 14.8011
lfemur -19.9343 5.69363 -19.0858
ltibia 33.0045
lfoot 18.3859 -5.448
ltoes -1.94568
248
root 0.467814 20.4405 -17.0414 2.60602 -12.6994 3.72229
lowerback 11.3046 0.210642 -0.0913756
upperback 0.864696 0.374904 1.97207
thorax -5.45224 0.206417 2.05889
lowerneck -12.6562 -1.16869 -9.85439
upperneck 13.8875 -0.559857 5.46037
head 6.34492 -0.34789 3.31739
rclavicle 3.77691e-015 1.59028e-014
rhumerus -51.9307 2.46992 -81.5592
rradius 48.3065
rwrist -1.4461
rhand -18.2079 7.6026
rfingers 7.12502
rthumb 8.06972 -22.2233
lclavicle 3.77691e-015 1.59028e-014
lhumerus -46.4165 11.0512 80.0642
lradius 44.4106
lwrist 9.22556
lhand -24.9383 24.2405
lfingers 7.12502
lthumb 1.5712 54.2145
rfemur -17.5422 2.73589 15.6306
rtibia 26.4173
rfoot 24.7592 -3.40435
rtoes 18.2645
lfemur -19.6498 5.87061 -19.3369
ltibia 32.9658
lfoot 19.1298 -6.62536
ltoes -2.40407
249
root 0.454086 20.04 -17.0369 2.55828 -12.4829 3.79349
lowerback 11.1042 0.116263 -0.130428
upperback 0.697869 0.253918 2.10818
thorax -5.51221 0.15098 2.24329
lowerneck -12.5936 -1.1072 -9.83326
upperneck 13.7871 -0.482058 5.44228
head 6.29581 -0.309558 3.31335
rclavicle 1.82882e-014 -4.77083e-015
rhumerus -52.2399 2.63282 -81.2106
rradius 48.9664
rwrist -1.58261
rhand -18.2277 8.91383
rfingers 7.12502
rthumb 8.05057 -20.9128
lclavicle 1.82882e-014 -4.77083e-015
lhumerus -46.7295 10.818 79.7621
lradius 45.1573
lwrist 9.56197
lhand -24.1345 20.5359
lfingers 7.12502
lthumb 2.34747 50.5027
rfemur -17.305 3.93608 15.2929
rtibia 26.4403
rfoot 25.5883 -4.11944
rtoes 20.0228
lfemur -19.6093 6.08816 -19.5072
ltibia 33.0378
lfoot 19.8839 -8.14026
ltoes -2.55986
250
root 0.445669 19.6345 -17.0188 2.34726 -12.4473 3.84473
lowerback 10.8897 0.0511661 -0.132887
upperback 0.599218 0.177887 2.30287
thorax -5.49373 0.116553 2.46066
lowerneck -12.4812 -0.981548 -9.88583
upperneck 13.7829 -0.306361 5.40233
head 6.26125 -0.231802 3.324
rclavicle 2.68359e-014 6.36111e-015
rhumerus -52.4377 2.82775 -80.7085
rradius 49.4193
rwrist -1.54798
rhand -17.8716 11.6726
rfingers 7.12502
rthumb 8.39422 -18.1406
lclavicle 2.68359e-014 6.36111e-015
lhumerus -47.0075 10.7686 79.5249
lradius 45.7415
lwrist 10.058
lhand -23.8544 18.4246
lfingers 7.12502
lthumb 2.61801 48.3882
rfemur -16.9628 5.2372 14.952
rtibia 26.8276
rfoot 24.9121 -4.73413
rtoes 18.5402
lfemur -19.387 6.34941 -19.6783
ltibia 33.3596
lfoot 20.139 -9.32599
ltoes -2.47478
251
root 0.443032 19.2089 -16.9942 2.01902 -12.6219 3.98621
lowerback 10.6389 0.0553072 -0.171744
upperback 0.639017 0.18243 2.4417
thorax -5.31236 0.11977 2.6257
lowerneck -12.6206 -0.941849 -9.92818
upperneck 13.718 -0.220873 5.35376
head 6.25801 -0.193728 3.3224
rclavicle 2.56432e-014 1.27222e-014
rhumerus -52.3965 3.02331 -80.2817
rradius 49.5944
rwrist -1.98559
rhand -17.8444 13.4343
rfingers 7.12502
rthumb 8.42045 -16.3779
lclavicle 2.56432e-014 1.27222e-014
lhumerus -47.1168 10.9692 79.1162
lradius 46.3934
lwrist 9.9474
lhand -23.7397 18.7091
lfingers 7.12502
lthumb 2.72875 48.6714
rfemur -16.6474 6.54741 14.4949
rtibia 27.978
rfoot 16.8792 -3.83042
rtoes -4.51594
lfemur -19.0982 6.60994 -19.9533
ltibia 34.1027
lfoot 19.9095 -9.58644
ltoes -1.08859
252
root 0.441098 18.7562 -16.9871 1.72117 -12.8315 3.93561
lowerback 10.6586 0.126904 0.0100238
upperback 0.710643 0.302305 2.52846
thorax -5.25345 0.174436 2.59547
lowerneck -13.0662 -1.03308 -9.88898
upperneck 13.5721 -0.321459 5.46639
head 6.29552 -0.223259 3.34376
rclavicle 1.15295e-014 -4.29375e-014
rhumerus -52.1305 2.86955 -79.9651
rradius 49.4874
rwrist -2.54274
rhand -18.1583 14.4756
rfingers 7.12502
rthumb 8.11754 -15.3485
lclavicle 1.15295e-014 -4.29375e-014
lhumerus -46.9195 10.9556 78.5881
lradius 46.9941
lwrist 9.44147
lhand -23.7626 19.0982
lfingers 7.12502
lthumb 2.7066 49.0608
rfemur -16.6831 7.38566 14.4268
rtibia 30.5401
rfoot 7.65764 -2.42013
rtoes -14.1523
lfemur -18.8918 6.71924 -19.9607
ltibia 35.1145
lfoot 14.4138 -8.75487
ltoes -14.0691
